<svg xmlns="http://www.w3.org/2000/svg" width="1024" height="1024" viewBox="0 0 1024 1024"><defs><linearGradient id="gF" x1="0" y1="0" x2="0" y2="1"><stop offset="0" stop-color="#233356"/><stop offset="0.42" stop-color="#3D4878"/><stop offset="0.70" stop-color="#87697F"/><stop offset="1" stop-color="#D9BA8E"/></linearGradient><clipPath id="cl"><rect x="0" y="0" width="1024" height="1024" rx="229"/></clipPath></defs><g clip-path="url(#cl)"><rect x="0" y="0" width="1024" height="1024" rx="229" fill="url(#gF)"/><ellipse cx="512" cy="952" rx="553" ry="164" fill="#E6C79A" opacity="0.5"/></g><path transform="translate(281.331 742.400) scale(0.31298 -0.31298)" d="M603.7991333007812 1397.9998779296875H870.2028198242188V75.60028076171875L1044.0025024414062 30.80010986328125V0H429.99945068359375V30.80010986328125L603.7991333007812 75.60028076171875ZM1312.401611328125 1361.99951171875H161.600341796875L279.0006103515625 1384.7997436523438L69.19989013671875 972.5990600585938L38.59979248046875 979.5990600585938L102.599853515625 1504.8001098632812H120.9998779296875L287.2010498046875 1410.7998046875L185.600341796875 1430H1288.401611328125L1186.8009033203125 1410.7998046875L1353.0020751953125 1504.8001098632812H1371.402099609375L1435.4021606445312 979.5990600585938L1404.8020629882812 972.5990600585938L1195.0013427734375 1384.7997436523438Z" fill="#F4EFE7"/></svg>